<svg xmlns="http://www.w3.org/2000/svg" width="512" height="512" viewBox="0 0 512 512" fill="none">
  <rect width="512" height="512" rx="108" fill="#4f46e5"/>
  <!-- Document body -->
  <path d="M148 80h136l80 80v272a24 24 0 0 1-24 24H148a24 24 0 0 1-24-24V104a24 24 0 0 1 24-24z" fill="white" opacity="0.95"/>
  <!-- Page fold -->
  <path d="M284 80v56a24 24 0 0 0 24 24h56z" fill="white" opacity="0.6"/>
  <!-- AI sparkle large -->
  <polygon points="390,200 400,230 430,240 400,250 390,280 380,250 350,240 380,230" fill="white"/>
  <!-- AI sparkle small -->
  <polygon points="420,300 426,316 442,322 426,328 420,344 414,328 398,322 414,316" fill="white" opacity="0.8"/>
  <!-- AI sparkle tiny -->
  <polygon points="370,150 374,160 384,164 374,168 370,178 366,168 356,164 366,160" fill="white" opacity="0.7"/>
  <!-- Document lines -->
  <rect x="164" y="200" width="140" height="10" rx="5" fill="#4f46e5" opacity="0.2"/>
  <rect x="164" y="230" width="120" height="10" rx="5" fill="#4f46e5" opacity="0.15"/>
  <rect x="164" y="260" width="150" height="10" rx="5" fill="#4f46e5" opacity="0.2"/>
  <rect x="164" y="290" width="100" height="10" rx="5" fill="#4f46e5" opacity="0.15"/>
  <rect x="164" y="320" width="130" height="10" rx="5" fill="#4f46e5" opacity="0.2"/>
  <rect x="164" y="350" width="80" height="10" rx="5" fill="#4f46e5" opacity="0.12"/>
</svg>
